<svg width="30" height="30" viewBox="0 0 30 30" fill="none" xmlns="http://www.w3.org/2000/svg">
<circle cx="15" cy="15" r="14.5" fill="#413F3F" stroke="#413F3F"/>
<path d="M16.3174 17.0889H14.0762C14.082 16.5615 14.123 16.1074 14.1992 15.7266C14.2812 15.3398 14.4189 14.9912 14.6123 14.6807C14.8115 14.3701 15.0752 14.0625 15.4033 13.7578C15.6787 13.5117 15.9189 13.2773 16.124 13.0547C16.3291 12.832 16.4902 12.6035 16.6074 12.3691C16.7246 12.1289 16.7832 11.8623 16.7832 11.5693C16.7832 11.2295 16.7305 10.9482 16.625 10.7256C16.5254 10.4971 16.373 10.3242 16.168 10.207C15.9688 10.0898 15.7168 10.0312 15.4121 10.0312C15.1602 10.0312 14.9258 10.0869 14.709 10.1982C14.4922 10.3037 14.3135 10.4678 14.1729 10.6904C14.0381 10.9131 13.9678 11.2061 13.9619 11.5693H11.4131C11.4307 10.7666 11.6152 10.1045 11.9668 9.58301C12.3242 9.05566 12.8018 8.66602 13.3994 8.41406C13.9971 8.15625 14.668 8.02734 15.4121 8.02734C16.2324 8.02734 16.9355 8.16211 17.5215 8.43164C18.1074 8.69531 18.5557 9.08496 18.8662 9.60059C19.1768 10.1104 19.332 10.7314 19.332 11.4639C19.332 11.9736 19.2324 12.4277 19.0332 12.8262C18.834 13.2188 18.5732 13.585 18.251 13.9248C17.9287 14.2646 17.5742 14.6162 17.1875 14.9795C16.8535 15.2783 16.625 15.5918 16.502 15.9199C16.3848 16.248 16.3232 16.6377 16.3174 17.0889ZM13.8125 19.8047C13.8125 19.4297 13.9414 19.1191 14.1992 18.873C14.457 18.6211 14.8027 18.4951 15.2363 18.4951C15.6641 18.4951 16.0068 18.6211 16.2646 18.873C16.5283 19.1191 16.6602 19.4297 16.6602 19.8047C16.6602 20.168 16.5283 20.4756 16.2646 20.7275C16.0068 20.9795 15.6641 21.1055 15.2363 21.1055C14.8027 21.1055 14.457 20.9795 14.1992 20.7275C13.9414 20.4756 13.8125 20.168 13.8125 19.8047Z" fill="#878282"/>
</svg>
