<svg width="38" height="18" viewBox="0 0 38 18" fill="none" xmlns="http://www.w3.org/2000/svg">
<path d="M2.96875 12.8613H3.1543C3.93555 12.8613 4.60612 12.7669 5.16602 12.5781C5.73242 12.3828 6.19792 12.1029 6.5625 11.7383C6.92708 11.3737 7.19727 10.9277 7.37305 10.4004C7.54883 9.86654 7.63672 9.26107 7.63672 8.58398V5.88867C7.63672 5.37435 7.58464 4.92188 7.48047 4.53125C7.38281 4.14062 7.23958 3.81836 7.05078 3.56445C6.86849 3.30404 6.65365 3.10872 6.40625 2.97852C6.16536 2.84831 5.89844 2.7832 5.60547 2.7832C5.29297 2.7832 5.01628 2.86133 4.77539 3.01758C4.53451 3.16732 4.32943 3.3724 4.16016 3.63281C3.9974 3.89323 3.87044 4.19271 3.7793 4.53125C3.69466 4.86328 3.65234 5.21159 3.65234 5.57617C3.65234 5.94076 3.69466 6.28906 3.7793 6.62109C3.86393 6.94661 3.99089 7.23633 4.16016 7.49023C4.32943 7.73763 4.54102 7.9362 4.79492 8.08594C5.04883 8.22917 5.34831 8.30078 5.69336 8.30078C6.02539 8.30078 6.32161 8.23893 6.58203 8.11523C6.84896 7.98503 7.07357 7.81576 7.25586 7.60742C7.44466 7.39909 7.58789 7.16797 7.68555 6.91406C7.78971 6.66016 7.8418 6.40299 7.8418 6.14258L8.76953 6.65039C8.76953 7.10612 8.67188 7.55534 8.47656 7.99805C8.28125 8.44076 8.00781 8.8444 7.65625 9.20898C7.3112 9.56706 6.91081 9.85352 6.45508 10.0684C5.99935 10.2832 5.51107 10.3906 4.99023 10.3906C4.32617 10.3906 3.73698 10.2702 3.22266 10.0293C2.70833 9.7819 2.27214 9.44336 1.91406 9.01367C1.5625 8.57747 1.29557 8.06966 1.11328 7.49023C0.93099 6.91081 0.839844 6.28255 0.839844 5.60547C0.839844 4.91536 0.950521 4.26758 1.17188 3.66211C1.39974 3.05664 1.72201 2.52279 2.13867 2.06055C2.56185 1.59831 3.06641 1.23698 3.65234 0.976562C4.24479 0.709635 4.90234 0.576172 5.625 0.576172C6.34766 0.576172 7.00521 0.716146 7.59766 0.996094C8.1901 1.27604 8.69792 1.67318 9.12109 2.1875C9.54427 2.69531 9.86979 3.30404 10.0977 4.01367C10.332 4.72331 10.4492 5.51107 10.4492 6.37695V7.35352C10.4492 8.27799 10.3483 9.13737 10.1465 9.93164C9.95117 10.7259 9.65495 11.4453 9.25781 12.0898C8.86719 12.7279 8.37891 13.2747 7.79297 13.7305C7.21354 14.1862 6.53971 14.5345 5.77148 14.7754C5.00326 15.0163 4.14388 15.1367 3.19336 15.1367H2.96875V12.8613ZM22.0312 6.64062V9.10156C22.0312 10.1693 21.9173 11.0905 21.6895 11.8652C21.4616 12.6335 21.1328 13.265 20.7031 13.7598C20.2799 14.248 19.7754 14.6094 19.1895 14.8438C18.6035 15.0781 17.9525 15.1953 17.2363 15.1953C16.6634 15.1953 16.1296 15.1237 15.6348 14.9805C15.14 14.8307 14.694 14.5996 14.2969 14.2871C13.9062 13.9746 13.5677 13.5807 13.2812 13.1055C13.0013 12.6237 12.7865 12.0508 12.6367 11.3867C12.487 10.7227 12.4121 9.96094 12.4121 9.10156V6.64062C12.4121 5.57292 12.526 4.6582 12.7539 3.89648C12.9883 3.12826 13.3171 2.5 13.7402 2.01172C14.1699 1.52344 14.6777 1.16536 15.2637 0.9375C15.8496 0.703125 16.5007 0.585938 17.2168 0.585938C17.7897 0.585938 18.3203 0.660807 18.8086 0.810547C19.3034 0.953776 19.7493 1.17839 20.1465 1.48438C20.5436 1.79036 20.8822 2.18424 21.1621 2.66602C21.4421 3.14128 21.6569 3.71094 21.8066 4.375C21.9564 5.03255 22.0312 5.78776 22.0312 6.64062ZM19.209 9.47266V6.25977C19.209 5.74544 19.1797 5.29622 19.1211 4.91211C19.069 4.52799 18.9876 4.20247 18.877 3.93555C18.7663 3.66211 18.6296 3.44076 18.4668 3.27148C18.304 3.10221 18.1185 2.97852 17.9102 2.90039C17.7018 2.82227 17.4707 2.7832 17.2168 2.7832C16.8978 2.7832 16.6146 2.84505 16.3672 2.96875C16.1263 3.09245 15.9212 3.29102 15.752 3.56445C15.5827 3.83138 15.4525 4.18945 15.3613 4.63867C15.2767 5.08138 15.2344 5.62174 15.2344 6.25977V9.47266C15.2344 9.98698 15.2604 10.4395 15.3125 10.8301C15.3711 11.2207 15.4557 11.556 15.5664 11.8359C15.6836 12.1094 15.8203 12.334 15.9766 12.5098C16.1393 12.679 16.3249 12.8027 16.5332 12.8809C16.748 12.959 16.9824 12.998 17.2363 12.998C17.5488 12.998 17.8255 12.9362 18.0664 12.8125C18.3138 12.6823 18.5221 12.4805 18.6914 12.207C18.8672 11.9271 18.9974 11.5625 19.082 11.1133C19.1667 10.6641 19.209 10.1172 19.209 9.47266ZM23.9062 4.26758V3.51562C23.9062 2.97526 24.0234 2.48372 24.2578 2.04102C24.4922 1.59831 24.8372 1.24349 25.293 0.976562C25.7487 0.709635 26.3086 0.576172 26.9727 0.576172C27.6562 0.576172 28.2259 0.709635 28.6816 0.976562C29.1439 1.24349 29.4889 1.59831 29.7168 2.04102C29.9512 2.48372 30.0684 2.97526 30.0684 3.51562V4.26758C30.0684 4.79492 29.9512 5.27995 29.7168 5.72266C29.4889 6.16536 29.1471 6.52018 28.6914 6.78711C28.2357 7.05404 27.6725 7.1875 27.002 7.1875C26.3249 7.1875 25.7552 7.05404 25.293 6.78711C24.8372 6.52018 24.4922 6.16536 24.2578 5.72266C24.0234 5.27995 23.9062 4.79492 23.9062 4.26758ZM25.7715 3.51562V4.26758C25.7715 4.49544 25.8138 4.71354 25.8984 4.92188C25.9896 5.1237 26.1263 5.28971 26.3086 5.41992C26.4974 5.54362 26.7253 5.60547 26.9922 5.60547C27.2721 5.60547 27.5 5.54362 27.6758 5.41992C27.8516 5.28971 27.9818 5.1237 28.0664 4.92188C28.151 4.71354 28.1934 4.49544 28.1934 4.26758V3.51562C28.1934 3.27474 28.1478 3.05339 28.0566 2.85156C27.972 2.64323 27.8385 2.47721 27.6562 2.35352C27.4805 2.22331 27.2526 2.1582 26.9727 2.1582C26.7122 2.1582 26.4909 2.22331 26.3086 2.35352C26.1263 2.47721 25.9896 2.64323 25.8984 2.85156C25.8138 3.05339 25.7715 3.27474 25.7715 3.51562ZM30.7031 12.2656V11.5137C30.7031 10.9798 30.8203 10.4915 31.0547 10.0488C31.2956 9.60612 31.6439 9.2513 32.0996 8.98438C32.5618 8.71745 33.1283 8.58398 33.7988 8.58398C34.4759 8.58398 35.0423 8.71745 35.498 8.98438C35.9538 9.2513 36.2988 9.60612 36.5332 10.0488C36.7676 10.4915 36.8848 10.9798 36.8848 11.5137V12.2656C36.8848 12.7995 36.7676 13.2878 36.5332 13.7305C36.3053 14.1732 35.9635 14.528 35.5078 14.7949C35.0521 15.0618 34.4889 15.1953 33.8184 15.1953C33.1413 15.1953 32.5716 15.0618 32.1094 14.7949C31.6471 14.528 31.2956 14.1732 31.0547 13.7305C30.8203 13.2878 30.7031 12.7995 30.7031 12.2656ZM32.5781 11.5137V12.2656C32.5781 12.5 32.6302 12.7214 32.7344 12.9297C32.8385 13.138 32.9818 13.304 33.1641 13.4277C33.3529 13.5514 33.571 13.6133 33.8184 13.6133C34.1309 13.6133 34.375 13.5514 34.5508 13.4277C34.7266 13.304 34.847 13.138 34.9121 12.9297C34.9837 12.7214 35.0195 12.5 35.0195 12.2656V11.5137C35.0195 11.2793 34.974 11.0612 34.8828 10.8594C34.7917 10.651 34.6549 10.485 34.4727 10.3613C34.2969 10.2311 34.0723 10.166 33.7988 10.166C33.5254 10.166 33.2975 10.2311 33.1152 10.3613C32.9395 10.485 32.806 10.651 32.7148 10.8594C32.6237 11.0612 32.5781 11.2793 32.5781 11.5137ZM34.4922 2.8125L27.5488 13.9258L26.1816 13.2031L33.125 2.08984L34.4922 2.8125Z" fill="#6BF9AC"/>
<path d="M0 16.9531H37.7539V17.9297H0V16.9531Z" fill="#6BF9AC"/>
</svg>
